#!OML:ASF F:\VICON\USERDATA\INSTALL\rory3\rory3.ASF
:FULLY-SPECIFIED
:DEGREES
37
root -0.2618269933233075 18.45135371724083 6.153881970881567 5.137410945071871 -2.9477819660095914 1.8172475891107225
lfemur 11.537163619908497 -6.276470311663267 -29.075414375633606
ltibia 47.41534110540564
lfoot 27.227707766211328 -22.1105215146639
ltoes -9.875032574268243
rfemur -36.33944642358069 0.4131574117024157 25.07707206233167
rtibia 25.30520659071587
rfoot 6.0467650402081645 -1.0061448324348392
rtoes -15.625793131469221
lowerback 14.233452603877573 -1.732007344735413 -2.1731652100888024
upperback -1.0361103011171653 -2.5851978916248672 0.9859166279200056
thorax -9.02073655412126 -1.106426049306323 2.9088055144431966
lowerneck -20.38266513128204 -3.281069372075218 -2.3101539692485717
upperneck 13.730049017102806 -4.326116870920411 2.6638414629505234
head 7.704225850613945 -1.8893848796489354 0.7230236583057013
lclavicle -1.082922012916486e-15 -9.044799575321534e-16
lhumerus -38.1868646068418 -15.32957106282965 94.07957185102383
lradius 115.51260981758506
lwrist 37.0677501332341
lhand -24.503517128323093 1.0665937423437644
lfingers 7.125020000000057
lthumb 1.9906238101689813 30.98207285627074
rclavicle -1.082922012916486e-15 -9.044799575321534e-16
rhumerus -65.37120138676445 4.125773345064422 -95.97757275339512
rradius 112.36717513170562
rwrist -15.821475950055014
rhand -20.28726508851648 32.896100514297096
rfingers 7.125020000000057
rthumb 6.0608299255032385 12.326342191802114
38
root -0.25356560557778585 18.273146680646633 7.1059891284797825 4.440223423887501 -3.504788395396777 1.6464432154387252
lfemur 9.841246146583945 -4.803253139698651 -27.977078781695084
ltibia 56.27186444168302
lfoot 25.85356491368351 -21.301474772814103
ltoes -7.62962828434821
rfemur -35.237165455865636 0.22910318968749932 25.95168790109352
rtibia 29.394360770769318
rfoot 4.957242393118868 0.28785363599438085
rtoes -9.82866264859804
lowerback 14.92342303097515 -1.457310582210022 -1.8421804561773285
upperback -0.7684854022458527 -2.163576252252047 1.0068673264766066
thorax -9.061851026252349 -0.9208941418627711 2.7096680895596528
lowerneck -20.149930694279256 -3.3306367061952633 -2.3486480077132446
upperneck 13.673915927179111 -4.352469695755202 2.5641268706962785
head 7.640423421836046 -1.924374309003392 0.6919502921109719
lclavicle -8.215772230395023e-16 -7.021200455458148e-16
lhumerus -39.1031463105126 -14.609247955300644 94.75250136809282
lradius 114.71643557171782
lwrist 37.387648762807856
lhand -24.55554949461342 0.7800974755450607
lfingers 7.125020000000057
lthumb 1.9403835042449378 30.69446389951172
rclavicle -8.215772230395023e-16 -7.021200455458148e-16
rhumerus -63.86966637891817 4.230216597411783 -95.93441117522283
rradius 112.21575469746318
rwrist -15.781919940697403
rhand -20.340419009693065 32.92944820371447
rfingers 7.125020000000057
rthumb 6.009451556020295 12.566495273885721
39
root -0.24997267804876477 18.057843524095446 8.008906798080172 3.7696451703760494 -4.194128306669797 1.1745552426978954
lfemur 7.473776990317404 -2.7205096145757057 -26.105207697881188
ltibia 65.54207926126432
lfoot 24.6834035130292 -20.154061933286204
ltoes -5.6772164334601705
rfemur -34.569944634247186 0.762270205669378 26.983743510259686
rtibia 35.30230039174707
rfoot 2.2235311872373535 1.4150607766915169
rtoes -2.948930675232943
lowerback 15.716803902698885 -1.133075270405381 -1.3741653078396319
upperback -0.5497610243656188 -1.6393189656118627 1.1383452437558037
thorax -9.24801434393937 -0.6887714283237355 2.484747161640593
lowerneck -19.991398165546556 -3.3291710364400635 -2.3482355739652814
upperneck 13.715253031092118 -4.305648662844113 2.3281206184855034
head 7.615278535354776 -1.9324831101730093 0.6177278238914554
lclavicle -7.385939478020551e-16 -6.378659364676254e-16
lhumerus -40.2373907209943 -14.158999441069044 95.60197468106287
lradius 113.90898505427816
lwrist 37.63666983397084
lhand -24.58962757477609 0.39522655935230944
lfingers 7.125020000000058
lthumb 1.9074703722901518 30.30822952652424
rclavicle -7.385939478020551e-16 -6.378659364676254e-16
rhumerus -62.07969491017753 4.706041815558713 -96.28512409765989
rradius 111.95969751117778
rwrist -16.04489400971238
rhand -20.49304321478753 33.21260880630502
rfingers 7.125020000000058
rthumb 5.862154633200207 12.430465044205397
40
root -0.23860594361798426 17.813303205545385 8.9900257402994 3.1000105466481527 -4.984583843010769 0.30890264965761816
lfemur 4.21146280399331 -0.20542023750644356 -23.409487150064194
ltibia 75.31784070345523
lfoot 23.10031722938491 -18.582230589129146
ltoes -3.4225578117271356
rfemur -33.717270277776336 1.8930550044028744 28.382010330510962
rtibia 41.37859995516894
rfoot -1.513675811781317 1.61378719129225
rtoes 4.251617258251517
lowerback 16.526158763212983 -0.7797181057632417 -0.6640546744059868
upperback -0.37709218767216396 -1.0169259067585013 1.3917141236887023
thorax -9.519680907860812 -0.4194568346054497 2.1873120815016778
lowerneck -19.98794144172423 -3.3028029135402797 -2.2741832201251646
upperneck 13.79652637539063 -4.246219488264778 2.066009114747118
head 7.629990843026659 -1.926769093331393 0.5232587505200211
lclavicle -8.070082411542683e-16 -6.908393746362375e-16
lhumerus -41.37970199595441 -13.619826122175711 96.22461783468746
lradius 112.32656980269356
lwrist 37.74983980734815
lhand -24.622460373411794 -0.055170601412649845
lfingers 7.125020000000057
lthumb 1.8757777901569115 29.857153006724776
rclavicle -8.070082411542683e-16 -6.908393746362375e-16
rhumerus -59.99385524335504 5.451906984360043 -96.7775784051475
rradius 111.36081166267239
rwrist -16.53403819974876
rhand -20.570777966696745 33.31096437748326
rfingers 7.125020000000057
rthumb 5.787142771231544 12.346287054192747
41
root -0.21577670292402423 17.565629191559353 10.351347806025593 2.7785306652878523 -5.485455768480753 -0.8005877938033177
lfemur 0.4737344065718325 2.5007333719457874 -19.906522595905972
ltibia 85.0915719346861
lfoot 21.413325490653058 -16.64178209736965
ltoes -1.0804853993855783
rfemur -31.813599157614924 3.5487611190024246 30.266239716417342
rtibia 47.64517388902035
rfoot -5.622641935213563 0.38754716315091287
rtoes 9.813784584438288
lowerback 17.226564884200542 -0.4140850055701757 0.35901662038335924
upperback -0.23770205392395305 -0.3194731798880358 1.784107059635346
thorax -9.709729176667913 -0.12141023484037072 1.9172954228128751
lowerneck -20.1396776558949 -3.232025621621872 -2.12743061956667
upperneck 13.86886505108518 -4.137168962231775 1.8714315510530877
head 7.671809077222618 -1.8921204133056873 0.4420278708001604
lclavicle -4.191587030878215e-16 -3.9052629055232405e-16
lhumerus -42.61792893743127 -12.519079568031263 96.73014815502441
lradius 111.50366308100712
lwrist 37.900209994975185
lhand -24.56706346806577 0.26227260135905794
lfingers 7.125020000000058
lthumb 1.9292809392265837 30.174699290941454
rclavicle -4.191587030878215e-16 -3.9052629055232405e-16
rhumerus -56.951338517936925 6.749706228011679 -97.01589318719704
rradius 111.56254059839523
rwrist -16.725047547731176
rhand -20.573567300013266 33.47345921011841
rfingers 7.125020000000058
rthumb 5.78459501998619 12.304924236935715
42
root -0.20660253595859884 17.332041489588246 11.055004365210117 2.6607540123795825 -5.6104914272436766 -2.100217375961303
lfemur -4.639703484969098 4.9426701147052166 -16.241574805903266
ltibia 94.1017066926176
lfoot 18.879605981939434 -14.827475273363927
ltoes 0.6188807806578263
rfemur -29.53565615341 5.3793215601366775 32.19298453565297
rtibia 51.927845044152676
rfoot -10.47444526282462 -2.71914231591885
rtoes 12.320586093113029
lowerback 17.801935921971204 -0.14945765387614107 1.3963838485635323
upperback -0.16320943301617452 0.2605370317200515 2.2252925760892994
thorax -9.941369101063314 0.11966038857635986 1.639211894889928
lowerneck -20.45796089681838 -3.2269600421159708 -1.9485193946829884
upperneck 13.748041702098213 -4.139440481371604 1.7149550519904995
head 7.68206639620686 -1.8993443554763685 0.35754043819303677
lclavicle -3.709591394922339e-16 -3.532050864468466e-16
lhumerus -44.2801974145891 -11.584429014317445 97.05114826936963
lradius 110.2053697780137
lwrist 37.76213579042039
lhand -24.475156357776246 0.8172684411303202
lfingers 7.125020000000059
lthumb 2.018011226712595 30.728018535191957
rclavicle -3.709591394922339e-16 -3.532050864468466e-16
rhumerus -53.48012080236437 8.037359760333596 -97.38348469229854
rradius 111.21416716238339
rwrist -16.889835421970012
rhand -20.57888636348904 33.57174090440103
rfingers 7.125020000000059
rthumb 5.779561834419905 12.136078141518345
43
root -0.20025791235358598 17.136900293076295 11.974074991228285 2.856175187431835 -5.267845916565523 -3.32966556010756
lfemur -10.610080586095597 6.940783325765574 -12.745273513048598
ltibia 102.43060904863125
lfoot 15.952495992066872 -12.998667960505546
ltoes 1.6325201164449394
rfemur -26.46516183470825 7.176805607196409 34.1960653923567
rtibia 55.0713761641736
rfoot -15.489356196730824 -7.170053559452472
rtoes 11.718467716483891
lowerback 18.25366883997137 0.07241697337375358 2.431155762567234
upperback -0.12447675646542605 0.7811186964937782 2.659249641473025
thorax -10.111178605059557 0.333210830248071 1.410500174839333
lowerneck -20.806846555575166 -3.291866780229753 -1.7803104796663822
upperneck 13.552704320978183 -4.250238967793203 1.7099412311357267
head 7.681100625549996 -1.9479200887295411 0.31235882246503766
lclavicle -8.418846278826858e-17 -1.311576059557165e-16
lhumerus -46.17240406343164 -10.776439807182896 97.46260610323529
lradius 109.92847489729846
lwrist 37.80273397635932
lhand -24.288197407663496 1.7566809418358549
lfingers 7.125020000000059
lthumb 2.1985056988468648 31.663690596337403
rclavicle -8.418846278826858e-17 -1.311576059557165e-16
rhumerus -49.43401073293014 9.80134930270465 -97.59613535883058
rradius 111.72864898866018
rwrist -16.883338495783402
rhand -20.537195742257015 33.55869579658478
rfingers 7.125020000000059
rthumb 5.819909318486807 11.931655436953365
